<svg width="22" height="23" viewBox="0 0 22 23" fill="none" xmlns="http://www.w3.org/2000/svg">
<path d="M17.9232 3.24734C17.6922 3.25809 17.4747 3.32523 17.2813 3.40042H17.2787C17.0826 3.4783 16.1507 3.87039 14.7354 4.4639C13.3202 5.06009 11.4832 5.83353 9.65976 6.60159C6.01815 8.13504 2.43832 9.64432 2.43832 9.64432L2.48129 9.6282C2.48129 9.6282 2.23422 9.70877 1.97641 9.88602C1.84481 9.97195 1.69979 10.0901 1.57357 10.2754C1.44735 10.4607 1.3453 10.7454 1.3829 11.0381C1.44467 11.5349 1.76693 11.833 1.99789 11.9969C2.23153 12.1634 2.45443 12.2412 2.45443 12.2412H2.4598L5.81674 13.3719C5.96713 13.8553 6.83993 16.7234 7.0494 17.3841C7.17294 17.7788 7.29379 18.0259 7.44418 18.2139C7.51669 18.3106 7.60263 18.3911 7.70468 18.4556C7.74496 18.4798 7.78793 18.4986 7.8309 18.5147C7.84433 18.5227 7.85775 18.5254 7.87387 18.5281L7.83895 18.5201C7.8497 18.5227 7.85775 18.5308 7.86581 18.5335C7.89267 18.5415 7.91146 18.5442 7.94638 18.5496C8.47811 18.7107 8.90512 18.3804 8.90512 18.3804L8.92929 18.3616L10.9112 16.5569L14.2332 19.1055L14.3084 19.1377C15.0013 19.4412 15.7022 19.272 16.0728 18.9739C16.4461 18.6731 16.5912 18.2891 16.5912 18.2891L16.6153 18.2273L19.1827 5.0762C19.2552 4.75125 19.274 4.44778 19.1934 4.15237C19.1129 3.85696 18.9061 3.58035 18.6563 3.43265C18.4039 3.28226 18.1541 3.2366 17.9232 3.24734ZM17.8534 4.65726C17.8507 4.70023 17.8587 4.69485 17.8399 4.77811V4.78616L15.2967 17.8003C15.286 17.8191 15.2672 17.8594 15.2162 17.8997C15.1624 17.9427 15.1195 17.9695 14.8966 17.8809L10.8333 14.7657L8.37875 17.0027L8.89437 13.7102C8.89437 13.7102 15.2591 7.77786 15.533 7.52274C15.807 7.26761 15.7157 7.2139 15.7157 7.2139C15.7345 6.90237 15.3021 7.12259 15.3021 7.12259L6.93124 12.3084L6.92855 12.295L2.91635 10.9441V10.9414C2.91366 10.9414 2.90829 10.9388 2.90561 10.9388C2.90829 10.9388 2.92709 10.9307 2.92709 10.9307L2.94857 10.92L2.97006 10.9119C2.97006 10.9119 6.55258 9.40262 10.1942 7.86917C12.0177 7.1011 13.8546 6.32767 15.2672 5.73148C16.6798 5.13797 17.7245 4.70291 17.7835 4.67874C17.8399 4.65726 17.8131 4.65726 17.8534 4.65726Z" fill="#A6A6A6"/>
</svg>
